<?xml version="1.0" encoding="UTF-8"?>
<svg width="375px" height="165px" viewBox="0 0 375 165" version="1.1" xmlns="http://www.w3.org/2000/svg" xmlns:xlink="http://www.w3.org/1999/xlink">
    <title>Group</title>
    <defs>
        <circle id="path-1" cx="80" cy="80" r="80"></circle>
    </defs>
    <g id="Page-1" stroke="none" stroke-width="1" fill="none" fill-rule="evenodd">
        <g id="Artboard" transform="translate(-139, -201)">
            <g id="Group" transform="translate(139.0506, 201)">
                <ellipse id="Oval" fill="#D8D8D8" transform="translate(98.9494, 127.5) rotate(90) translate(-98.9494, -127.5)" cx="98.9494139" cy="127.5" rx="37" ry="10.5"></ellipse>
                <ellipse id="Oval" fill="#D8D8D8" transform="translate(63.9494, 125.5) rotate(90) translate(-63.9494, -125.5)" cx="63.9494139" cy="125.5" rx="37" ry="10.5"></ellipse>
                <ellipse id="Oval" fill="#D8D8D8" transform="translate(133.9494, 127.5) rotate(90) translate(-133.9494, -127.5)" cx="133.949414" cy="127.5" rx="37" ry="10.5"></ellipse>
                <ellipse id="Oval" fill="#D8D8D8" transform="translate(167.9494, 122.5) rotate(90) translate(-167.9494, -122.5)" cx="167.949414" cy="122.5" rx="37" ry="10.5"></ellipse>
                <path d="M165.065028,144.870019 C185.56852,144.870019 202.189885,141.344275 202.189885,136.995049 C202.189885,132.645824 185.56852,129.12008 165.065028,129.12008 C144.561536,129.12008 122.877691,94.5544818 122.877691,98.9037075 C122.877691,103.252933 144.561536,144.870019 165.065028,144.870019 Z" id="Oval" fill="#D8D8D8" transform="translate(162.5338, 121.6976) scale(-1, -1) rotate(-7) translate(-162.5338, -121.6976)"></path>
                <path d="M38.5606409,135.919727 C59.0641331,135.919727 75.6854976,123.201865 75.6854976,107.513587 C75.6854976,91.8253087 59.0641331,79.1074465 38.5606409,79.1074465 C25.3749864,79.1074465 13.7948585,84.3671569 7.20842565,92.2941154 C3.55305564,96.6934568 1.43578419,101.914332 1.43578419,107.513587 C1.43578419,123.201865 18.0571487,135.919727 38.5606409,135.919727 Z" id="Oval" fill="#D8D8D8" transform="translate(38.5606, 107.5136) rotate(-3) translate(-38.5606, -107.5136)"></path>
                <circle id="Oval" fill="#4A4A4A" transform="translate(18.8911, 108.3995) rotate(-47) translate(-18.8911, -108.3995)" cx="18.8911467" cy="108.399455" r="5.06248046"></circle>
                <path d="M110.170127,145 C156.200371,145 193.949414,138.724471 193.949414,92.2635372 C193.949414,45.8026034 156.200371,13 110.170127,13 C64.1398825,13 26.9494139,45.8026034 26.9494139,92.2635372 C26.9494139,138.724471 64.1398825,145 110.170127,145 Z" id="Oval" fill="#D8D8D8"></path>
                <path d="M204.718301,108.399455 C222.944915,108.399455 230.002766,138.665414 248.368881,132 C266.734996,125.334586 271.949414,100.381713 271.949414,84 C271.949414,70.092435 255.016452,19.261572 242.756088,23.3848154 C230.495724,27.5080588 221.029975,44.999812 204.718301,44.999812 C188.406628,44.999812 170.2288,19.5386381 155.791841,15.775807 C141.354883,12.0129759 139.948454,71.4624852 139.948454,84 C139.948454,97.2868228 145.796317,116.713983 159.025446,121.697603 C172.254575,126.681223 186.491687,108.399455 204.718301,108.399455 Z" id="Oval" fill="#4A4A4A"></path>
                <path d="M109.166782,132 C155.748286,132 193.949414,125.724471 193.949414,79.2635372 C193.949414,32.8026034 155.748286,0 109.166782,0 C62.5852773,0 24.9494139,32.8026034 24.9494139,79.2635372 C24.9494139,125.724471 62.5852773,132 109.166782,132 Z" id="Oval" fill="#4A4A4A"></path>
                <path d="M41.1842416,126.072694 C44.209827,128.275899 53.4624905,133.625579 66.0725394,134.897721 C69.9246883,135.286339 77.2169798,134.567515 87.9494139,132.74125 C83.5821134,132.74125 77.7087865,131.888945 70.329433,130.184334 C59.2604029,127.627419 51.2650001,122.335234 41.1842416,110.941784 C34.4637359,103.346151 28.9371967,93.3655561 24.604624,81 C23.3438615,83.7037422 22.3337669,85.5664958 21.57434,86.5882609 C19.3541058,89.5754582 20.054094,91.0163169 20.054094,94.1602836 C20.054094,101.328904 30.0670226,117.977232 41.1842416,126.072694 Z" id="Oval" fill="#D8D8D8"></path>
                <g id="deno" transform="translate(214.9494, 0)">
                    <mask id="mask-2" fill="white">
                        <use xlink:href="#path-1"></use>
                    </mask>
                    <use id="Mask" fill="#4A4A4A" xlink:href="#path-1"></use>
                    <path d="M75.3358472,35 C93.3875135,35 110.502516,38.2832053 122.510927,54.9138556 C134.519337,71.5445058 137.455833,106.13041 124.756005,137.688748 C112.056178,169.247085 90.0537155,191.679371 75.6036844,187.498596 C64.9031479,184.402648 -9.75896308,126.297791 35.3579974,147.938971 C80.474958,169.58015 92.2095946,115.558819 85.834936,89.1978254 C83.3144793,89.6864961 79.5135762,90.0739838 74.4322268,90.3602884 C59.4822016,90.4509247 34.3869818,94.5273757 26.1874359,73.8490564 C17.8205523,52.7487305 49.1535763,35 75.3358472,35 Z" id="Path" fill="#FFFFFF" mask="url(#mask-2)"></path>
                    <circle id="Oval" fill="#4A4A4A" mask="url(#mask-2)" cx="76.5" cy="61.5" r="9.5"></circle>
                </g>
            </g>
        </g>
    </g>
</svg>