<?xml version="1.0" encoding="UTF-8"?>
<svg width="365px" height="294px" viewBox="0 0 365 294" version="1.1" xmlns="http://www.w3.org/2000/svg" xmlns:xlink="http://www.w3.org/1999/xlink">
    <title>Group 2</title>
    <g id="Page-1" stroke="none" stroke-width="1" fill="none" fill-rule="evenodd">
        <g id="Artboard" transform="translate(-183, -137)">
            <g id="Group-2" transform="translate(136.1354, 137)">
                <ellipse id="Oval" fill="#D8D8D8" transform="translate(223.2994, 227.5477) rotate(90) translate(-223.2994, -227.5477)" cx="223.299414" cy="227.547695" rx="66" ry="19"></ellipse>
                <ellipse id="Oval" fill="#D8D8D8" transform="translate(161.2994, 223.5477) rotate(90) translate(-161.2994, -223.5477)" cx="161.299414" cy="223.547695" rx="66" ry="19"></ellipse>
                <ellipse id="Oval" fill="#D8D8D8" transform="translate(285.2994, 226.5477) rotate(90) translate(-285.2994, -226.5477)" cx="285.299414" cy="226.547695" rx="66" ry="19"></ellipse>
                <ellipse id="Oval" fill="#D8D8D8" transform="translate(347.2994, 217.5477) rotate(90) translate(-347.2994, -217.5477)" cx="347.299414" cy="217.547695" rx="66" ry="19"></ellipse>
                <path d="M341.299414,257.547695 C377.750208,257.547695 407.299414,251.279681 407.299414,243.547695 C407.299414,235.815708 377.750208,229.547695 341.299414,229.547695 C304.848621,229.547695 266.299414,168.097505 266.299414,175.829492 C266.299414,183.561478 304.848621,257.547695 341.299414,257.547695 Z" id="Oval" fill="#D8D8D8" transform="translate(336.7994, 216.3521) scale(-1, -1) rotate(-7) translate(-336.7994, -216.3521)"></path>
                <path d="M116.401858,241.636003 C152.852651,241.636003 182.401858,219.026383 182.401858,191.136003 C182.401858,163.245623 152.852651,140.636003 116.401858,140.636003 C92.9606038,140.636003 72.3736303,149.986636 60.6643712,164.079061 C54.1659105,171.900142 50.4018579,181.181735 50.4018579,191.136003 C50.4018579,219.026383 79.9510644,241.636003 116.401858,241.636003 Z" id="Oval" fill="#D8D8D8" transform="translate(116.4019, 191.136) rotate(-3) translate(-116.4019, -191.136)"></path>
                <circle id="Oval" fill="#4A4A4A" transform="translate(81.4337, 192.7109) rotate(-47) translate(-81.4337, -192.7109)" cx="81.4337332" cy="192.710886" r="9"></circle>
                <path d="M244.091788,257.364147 C325.953958,257.364147 393.088484,246.174491 393.088484,163.331779 C393.088484,80.4890663 325.953958,22 244.091788,22 C162.229617,22 96.0884842,80.4890663 96.0884842,163.331779 C96.0884842,246.174491 162.229617,257.364147 244.091788,257.364147 Z" id="Oval" fill="#D8D8D8"></path>
                <path d="M241.864565,235.364147 C324.707278,235.364147 392.645938,224.174491 392.645938,141.331779 C392.645938,58.4890663 324.707278,0 241.864565,0 C159.021853,0 92.0884842,58.4890663 92.0884842,141.331779 C92.0884842,224.174491 159.021853,235.364147 241.864565,235.364147 Z" id="Oval" fill="#4A4A4A"></path>
                <path d="M121.458134,223.547695 C126.81775,227.451698 143.208206,236.931149 165.546039,239.185341 C172.369855,239.873957 185.287647,238.600225 204.299414,235.364147 C196.563042,235.364147 186.158849,233.853891 173.086832,230.83338 C153.478808,226.302614 139.315503,216.925044 121.458134,196.736242 C109.553221,183.277041 99.7633381,165.59177 92.0884842,143.68043 C89.8551303,148.471368 88.0658172,151.772103 86.720545,153.582636 C82.7875531,158.875847 84.0275339,161.428999 84.0275339,167 C84.0275339,179.702549 101.764747,209.202814 121.458134,223.547695 Z" id="Oval" fill="#D8D8D8"></path>
            </g>
        </g>
    </g>
</svg>